@startuml
' uncomment the line below if you're using computer with a retina display
' skinparam dpi 300
!function Table($name)
  !return "class " + $name + " << (T,#FFAAAA) >>"
!endfunction
' we use bold for primary key
' green color for unique
' and underscore for not_null
!function column($name, $type, $null="", $pk="", $fk="", $unique="")
  !$label = ""

  ' Display key
  !if ($pk == "PK" && $fk != "FK")
    !$label = "<color:red><&key></color>"
  !elseif ($pk == "PK" && $fk == "FK")
    !$label = "<color:blue><&key></color>"
  !elseif ($fk == "FK")
    !$label = "<color:green><&key></color>"
  !else
    !$label = "<&minus>"
  !endif

  ' Display nullable icon
  !if ($null == "NULL")
    !$label = $label + "<&ban>"
  !else
    !$label = $label + "<&minus>"
  !endif

  ' Display unique icon
  !if ($unique == "UNIQUE")
    !$label = $label + "<&audio-spectrum>"
  !else
    !$label = $label + "<&minus>"
  !endif

  ' display label in the right color (PK, FK, both, none)
  !$label = $label + " "
  !$columnSpec = $name + " : " + $type
  !if ($pk == "PK" && $fk != "FK")
    !$label = $label + "<u><color:red>" + $columnSpec + "</color></u>"
  !elseif ($pk == "PK" && $fk == "FK")
    !$label = $label + "<u><color:blue>" + $columnSpec + "</color></u>"
  !elseif ($fk == "FK")
    !$label = $label + "<u><color:green>" + $columnSpec + "</color></u>"
  !else
    !$label = $label + $columnSpec
  !endif

  !return $label
!endfunction
' other tags available:
' <i></i>
' <back:COLOR></color>, where color is a color name or html color code
' (#FFAACC)
' see: http://plantuml.com/classes.html#More
hide methods
hide stereotypes
skinparam classAttributeIconSize 0

' entities
' entities
Table(customer) {
  column("id", "int11", "NOT NULL", "PK", "", "")
  column("identifier", "varchar128", "NOT NULL", "", "", "UNIQUE")
  column("created_at", "datetime6", "NOT NULL", "", "", "")
  column("updated_at", "datetime6", "NOT NULL", "", "", "")
}

Table(learner) {
  column("id", "int10 unsigned", "NOT NULL", "PK", "", "")
  column("customer_id", "int11", "NOT NULL", "", "", "UNIQUE")
  column("external_id", "varchar255", "NOT NULL", "", "", "UNIQUE")
  column("created_at", "datetime6", "NOT NULL", "", "", "")
  column("updated_at", "datetime6", "NOT NULL", "", "", "")
}
learner "0..*" --> "1" customer : "id"

Table(learner_attribute) {
  column("id", "int11", "NOT NULL", "PK", "", "")
  column("attribute_id", "int10 unsigned", "NOT NULL", "", "", "")
  column("learner_id", "int10 unsigned", "NOT NULL", "", "", "")
  column("created_at", "datetime6", "NOT NULL", "", "", "")
  column("interest", "double", "NOT NULL", "", "", "")
  column("level", "double", "NOT NULL", "", "", "")
  column("updated_at", "datetime6", "NOT NULL", "", "", "")
}
learner_attribute "0..*" --> "1" attribute : "id"
learner_attribute "0..*" --> "1" learner : "id"

Table(attribute) {
  column("id", "int10 unsigned", "NOT NULL", "PK", "", "")
  column("mapped_attribute_id", "int10 unsigned", "NULL", "", "", "")
  column("internal_id", "int11", "NULL", "", "", "UNIQUE")
  column("created_at", "datetime6", "NOT NULL", "", "", "")
  column("translations", "json", "NOT NULL", "", "", "")
  column("updated_at", "datetime6", "NOT NULL", "", "", "")
}
attribute "0..*" --> "1" attribute : "id"

Table(product) {
  column("id", "int10 unsigned", "NOT NULL", "PK", "", "")
  column("customer_id", "int11", "NOT NULL", "", "", "UNIQUE")
  column("external_id", "int10 unsigned", "NOT NULL", "", "", "UNIQUE")
  column("created_at", "datetime6", "NOT NULL", "", "", "")
  column("updated_at", "datetime6", "NOT NULL", "", "", "")
}
product "0..*" --> "1" customer : "id"

Table(product_attribute) {
  column("id", "int11", "NOT NULL", "PK", "", "")
  column("attribute_id", "int10 unsigned", "NOT NULL", "", "", "")
  column("training_course_id", "int10 unsigned", "NOT NULL", "", "", "")
  column("created_at", "datetime6", "NOT NULL", "", "", "")
  column("relevance", "double", "NOT NULL", "", "", "")
  column("updated_at", "datetime6", "NOT NULL", "", "", "")
}
product_attribute "0..*" --> "1" attribute : "id"
product_attribute "0..*" --> "1" product : "id"

@enduml
